<svg width="191" height="523" viewBox="0 0 191 523" fill="none" xmlns="http://www.w3.org/2000/svg">
<path d="M-44.7586 522.957C-45.1822 517.799 -55.7979 433.064 36.7564 408.264C110.8 388.424 153.475 270.163 95.3689 235.734C89.8801 232.641 85.2334 227.995 81.5869 222.35C50.4133 174.087 108.439 74.7719 52.2645 86.832V86.832C3.97661 97.1989 -23.7821 50.9117 -31.6254 26.4722" stroke="#4E1AB5" stroke-opacity="0.65"/>
<path d="M-50.9248 498.357C-51.3092 493.677 -60.9409 416.796 23.0349 394.295C90.2156 376.294 128.935 268.994 76.2148 237.756C71.4124 235.049 67.3205 231.033 64.0678 226.157C34.9065 182.439 88.4862 91.6243 37.1056 102.655V102.655C-6.70664 112.061 -31.8925 70.0641 -39.0089 47.8899" stroke="#4E1AB5" stroke-opacity="0.55"/>
<path d="M-56.572 471.464C-56.9125 467.318 -65.4445 399.215 8.94326 379.283C68.4535 363.337 102.752 268.288 56.0513 240.617C51.7972 238.22 48.1724 234.662 45.2911 230.342C19.4593 191.616 66.9215 111.17 21.4074 120.942V120.942C-17.4025 129.274 -39.7127 92.0717 -46.0166 72.4293" stroke="#4E1AB5" stroke-opacity="0.45"/>
<path d="M-53.3661 434.96C-53.6455 431.558 -60.6474 375.669 0.399617 359.311C49.2372 346.225 77.3849 268.223 39.0592 245.514C35.5681 243.547 32.5934 240.627 30.2288 237.082C9.02971 205.301 47.98 139.282 10.6284 147.301V147.301C-21.2213 154.139 -39.5303 123.609 -44.7037 107.489" stroke="#4E1AB5" stroke-opacity="0.35"/>
<path d="M-51.1622 410.772C-51.3922 407.972 -57.1554 361.969 -6.90753 348.505C33.2908 337.734 56.4593 273.53 24.9133 254.838C22.0397 253.219 19.5912 250.816 17.6449 247.898C0.195928 221.739 32.256 167.399 1.51181 173.999V173.999C-24.7037 179.628 -39.774 154.498 -44.0322 141.23" stroke="#4E1AB5" stroke-opacity="0.25"/>
</svg>
