<svg width="36" height="36" viewBox="0 0 36 36" fill="none" xmlns="http://www.w3.org/2000/svg">
<rect width="36" height="36" rx="2" fill="white"/>
<path d="M28.8 23.3998V12.5998C28.8 11.6038 27.996 10.7998 27 10.7998H10.188C9.192 10.7998 8.388 11.6038 8.388 12.5998V23.3998C8.388 24.3958 9.192 25.1998 10.188 25.1998H27C27.996 25.1998 28.8 24.3958 28.8 23.3998ZM27.228 12.4678C27.624 12.8638 27.408 13.2718 27.192 13.4758L22.32 17.9398L27 22.8118C27.144 22.9798 27.24 23.2438 27.072 23.4238C26.916 23.6158 26.556 23.6038 26.4 23.4838L21.156 19.0078L18.588 21.3478L16.032 19.0078L10.788 23.4838C10.632 23.6038 10.272 23.6158 10.116 23.4238C9.948 23.2438 10.044 22.9798 10.188 22.8118L14.868 17.9398L9.996 13.4758C9.78 13.2718 9.564 12.8638 9.96 12.4678C10.356 12.0718 10.764 12.2638 11.1 12.5518L18.588 18.5998L26.088 12.5518C26.424 12.2638 26.832 12.0718 27.228 12.4678Z" fill="#15479C"/>
</svg>
