<svg width="36" height="36" viewBox="0 0 36 36" fill="none" xmlns="http://www.w3.org/2000/svg">
<rect width="36" height="36" rx="2" fill="white"/>
<path d="M25.23 21.2598L22.69 20.9698C22.3913 20.9347 22.0886 20.9678 21.8045 21.0665C21.5205 21.1652 21.2625 21.327 21.05 21.5398L19.21 23.3798C16.3714 21.9357 14.064 19.6284 12.62 16.7898L14.47 14.9398C14.9 14.5098 15.11 13.9098 15.04 13.2998L14.75 10.7798C14.6935 10.2919 14.4594 9.84179 14.0924 9.51536C13.7254 9.18893 13.2511 9.00897 12.76 9.00977H11.03C9.89998 9.00977 8.95998 9.94977 9.02998 11.0798C9.55998 19.6198 16.39 26.4398 24.92 26.9698C26.05 27.0398 26.99 26.0998 26.99 24.9698V23.2398C27 22.2298 26.24 21.3798 25.23 21.2598Z" fill="#15479C"/>
<path d="M18 12.5973C19.35 12.6986 22.275 13.7518 23.175 17.1543M18.225 9.1543C20.55 9.39058 25.56 11.2809 27 16.9518" stroke="#15479C" stroke-linecap="round" stroke-linejoin="bevel"/>
</svg>
