<svg width="24" height="24" viewBox="0 0 24 24" fill="none" xmlns="http://www.w3.org/2000/svg">
<g clip-path="url(#clip0_535_4884)">
<path d="M0.921875 19.982C1.39452 20.4249 2.01884 20.6699 2.66654 20.6667H21.3332C22.8059 20.6667 23.9999 19.4727 23.9999 17.6667V12H11.6665L0.921875 19.982Z" fill="#D7141A"/>
<path d="M21.3335 3.33325H2.66683C2.01651 3.33308 1.38877 3.57174 0.902832 4.00392L11.6668 11.9999H24.0002V5.99992C24.0002 5.29267 23.7192 4.6144 23.2191 4.1143C22.719 3.6142 22.0407 3.33325 21.3335 3.33325Z" fill="#EEEEEE"/>
<path d="M0.922 19.9819L11.6667 11.9999L0.902667 4.00391C0.619451 4.25372 0.392526 4.56084 0.236912 4.90494C0.0812986 5.24903 0.000546112 5.62226 0 5.99991L0 17.6666C0 18.6532 0.358 19.4552 0.922 19.9819Z" fill="#11457E"/>
</g>
<defs>
<clipPath id="clip0_535_4884">
<rect width="24" height="24" fill="white"/>
</clipPath>
</defs>
</svg>
