<svg width="30" height="31" viewBox="0 0 30 31" fill="none" xmlns="http://www.w3.org/2000/svg">
<rect y="0.846191" width="30" height="30" rx="2" fill="#15479C"/>
<path d="M15 15.4299C14.4474 15.4299 13.9175 15.2104 13.5268 14.8197C13.1361 14.429 12.9166 13.8991 12.9166 13.3465C12.9166 12.794 13.1361 12.2641 13.5268 11.8734C13.9175 11.4827 14.4474 11.2632 15 11.2632C15.5525 11.2632 16.0824 11.4827 16.4731 11.8734C16.8638 12.2641 17.0833 12.794 17.0833 13.3465C17.0833 13.6201 17.0294 13.891 16.9247 14.1438C16.82 14.3965 16.6666 14.6262 16.4731 14.8197C16.2796 15.0131 16.05 15.1666 15.7972 15.2713C15.5445 15.376 15.2735 15.4299 15 15.4299ZM15 7.51318C13.4529 7.51318 11.9691 8.12777 10.8752 9.22173C9.78121 10.3157 9.16663 11.7994 9.16663 13.3465C9.16663 17.7215 15 24.1798 15 24.1798C15 24.1798 20.8333 17.7215 20.8333 13.3465C20.8333 11.7994 20.2187 10.3157 19.1247 9.22173C18.0308 8.12777 16.5471 7.51318 15 7.51318Z" fill="white"/>
</svg>
