<svg width="30" height="31" viewBox="0 0 30 31" fill="none" xmlns="http://www.w3.org/2000/svg">
<rect y="0.846191" width="30" height="30" rx="2" fill="#15479C"/>
<path d="M24.0002 20.3462V11.3462C24.0002 10.5162 23.3302 9.84619 22.5002 9.84619H8.49023C7.66023 9.84619 6.99023 10.5162 6.99023 11.3462V20.3462C6.99023 21.1762 7.66023 21.8462 8.49023 21.8462H22.5002C23.3302 21.8462 24.0002 21.1762 24.0002 20.3462ZM22.6902 11.2362C23.0202 11.5662 22.8402 11.9062 22.6602 12.0762L18.6002 15.7962L22.5002 19.8562C22.6202 19.9962 22.7002 20.2162 22.5602 20.3662C22.4302 20.5262 22.1302 20.5162 22.0002 20.4162L17.6302 16.6862L15.4902 18.6362L13.3602 16.6862L8.99023 20.4162C8.86023 20.5162 8.56023 20.5262 8.43023 20.3662C8.29023 20.2162 8.37023 19.9962 8.49023 19.8562L12.3902 15.7962L8.33023 12.0762C8.15023 11.9062 7.97023 11.5662 8.30023 11.2362C8.63023 10.9062 8.97023 11.0662 9.25023 11.3062L15.4902 16.3462L21.7402 11.3062C22.0202 11.0662 22.3602 10.9062 22.6902 11.2362Z" fill="white"/>
</svg>
