<svg width="30" height="31" viewBox="0 0 30 31" fill="none" xmlns="http://www.w3.org/2000/svg">
<rect y="0.846191" width="30" height="30" rx="2" fill="#15479C"/>
<path d="M21.0245 18.5623L18.9079 18.3207C18.659 18.2914 18.4067 18.319 18.17 18.4013C17.9333 18.4835 17.7183 18.6184 17.5412 18.7957L16.0079 20.329C13.6424 19.1256 11.7196 17.2028 10.5162 14.8373L12.0579 13.2957C12.4162 12.9373 12.5912 12.4373 12.5329 11.929L12.2912 9.82901C12.2441 9.42241 12.0491 9.04736 11.7433 8.77533C11.4374 8.50331 11.0422 8.35334 10.6329 8.35401H9.19121C8.24955 8.35401 7.46621 9.13734 7.52455 10.079C7.96621 17.1957 13.6579 22.879 20.7662 23.3207C21.7079 23.379 22.4912 22.5957 22.4912 21.654V20.2123C22.4995 19.3707 21.8662 18.6623 21.0245 18.5623Z" fill="white"/>
<path d="M15 11.3443C16.125 11.4287 18.5625 12.3063 19.3125 15.1418M15.1875 8.4751C17.125 8.672 21.3 10.2472 22.5 14.973" stroke="white" stroke-linecap="round" stroke-linejoin="bevel"/>
</svg>
