<svg width="28" height="28" viewBox="0 0 28 28" fill="none" xmlns="http://www.w3.org/2000/svg">
<path d="M9.40662 14.2727C9.40662 13.6805 8.99514 13.3267 8.2696 13.3267C7.97346 13.3267 7.77318 13.3555 7.66797 13.3836V15.2859C7.79266 15.3139 7.9454 15.324 8.15504 15.324C8.9289 15.324 9.40662 14.932 9.40662 14.2727ZM13.9001 13.3454C13.5752 13.3454 13.3648 13.3742 13.2401 13.403V17.6176C13.3648 17.6464 13.565 17.6464 13.7466 17.6464C15.0652 17.6557 15.9256 16.9294 15.9256 15.3911C15.9357 14.053 15.1517 13.3454 13.9001 13.3454Z" fill="#15479C"/>
<path d="M22.5088 10.8695H21.9804V8.32033L21.9757 8.27201C21.9762 8.16955 21.94 8.0703 21.8736 7.99224L17.6318 3.14802L17.6287 3.14491C17.5747 3.08657 17.5061 3.04378 17.43 3.021L17.4066 3.0132C17.3743 3.00482 17.341 3.00063 17.3076 3.00073H6.88274C6.40658 3.00073 6.02004 3.38805 6.02004 3.86343V10.8695H5.49166C4.81054 10.8695 4.25879 11.4212 4.25879 12.1023V18.5145C4.25879 19.1949 4.81132 19.7474 5.49166 19.7474H6.02004V24.1373C6.02004 24.6127 6.40658 25 6.88274 25H21.1177C21.5931 25 21.9804 24.6127 21.9804 24.1373V19.7474H22.5088C23.1899 19.7474 23.7416 19.1949 23.7416 18.5145V12.1023C23.7416 11.4212 23.1891 10.8695 22.5088 10.8695ZM6.88274 3.86343H16.8759V8.27747C16.8759 8.51594 17.0692 8.70843 17.3076 8.70843H21.1185V10.8695H6.88274V3.86343ZM17.4736 15.3427C17.4736 16.5756 17.0247 17.4266 16.4021 17.9519C15.7241 18.5153 14.6922 18.7834 13.4305 18.7834C12.6754 18.7834 12.1408 18.7351 11.7768 18.6883V12.3611C12.3122 12.2753 13.0097 12.2278 13.7462 12.2278C14.9689 12.2278 15.7622 12.4476 16.3834 12.9159C17.0528 13.4124 17.4736 14.2057 17.4736 15.3427ZM6.22344 18.7172V12.3611C6.67232 12.2847 7.30357 12.2278 8.19199 12.2278C9.09054 12.2278 9.73113 12.4 10.1605 12.7437C10.5712 13.0687 10.8479 13.6041 10.8479 14.2345C10.8479 14.8658 10.6383 15.4004 10.2556 15.7636C9.75841 16.2319 9.02274 16.4423 8.16237 16.4423C7.97144 16.4423 7.79921 16.433 7.66595 16.4135V18.7172H6.22344ZM21.1177 23.9035H6.88274V19.7474H21.1177V23.9035ZM22.3677 13.47H19.8918V14.9422H22.2048V16.1275H19.8918V18.7172H18.4306V12.2753H22.3677V13.47Z" fill="#15479C"/>
</svg>
