<svg width="119" height="354" viewBox="0 0 119 354" fill="none" xmlns="http://www.w3.org/2000/svg">
<path d="M166.738 1.00027C166.656 4.58793 167.842 63.7907 102.22 74.192C49.7226 82.5131 11.7312 160.977 49.3092 188.927C52.7434 191.367 55.533 194.746 57.6162 198.712C76.2919 234.267 28.3216 299.016 68.254 294.732V294.732C102.304 291.079 118.096 325.009 121.735 342.43" stroke="#4E1AB5" stroke-opacity="0.65"/>
<path d="M169.209 18.4107C169.135 21.6659 170.211 75.3813 110.671 84.8186C63.0396 92.3684 28.5695 163.56 62.6646 188.919C65.7804 191.133 68.3115 194.199 70.2016 197.797C87.1464 230.057 43.6222 288.805 79.8535 284.918V284.918C110.748 281.603 125.076 312.388 128.378 328.195" stroke="#4E1AB5" stroke-opacity="0.55"/>
<path d="M171.156 37.3656C171.091 40.249 172.044 87.8314 119.302 96.1912C77.1088 102.879 46.5744 165.942 76.7766 188.406C79.5367 190.367 81.7788 193.083 83.4531 196.27C98.4632 224.847 59.9085 276.887 92.0029 273.443V273.443C119.37 270.507 132.062 297.778 134.987 311.78" stroke="#4E1AB5" stroke-opacity="0.45"/>
<path d="M166.302 62.3063C166.249 64.6727 167.031 103.722 123.748 110.582C89.1216 116.07 64.0633 167.824 88.849 186.259C91.1141 187.868 92.9541 190.097 94.3281 192.713C106.646 216.164 75.006 258.871 101.345 256.046V256.046C123.804 253.636 134.219 276.016 136.62 287.507" stroke="#4E1AB5" stroke-opacity="0.35"/>
<path d="M163.031 78.8272C162.987 80.7749 163.631 112.916 128.005 118.563C99.5038 123.081 78.8782 165.679 99.2794 180.853C101.144 182.178 102.658 184.012 103.789 186.165C113.928 205.468 87.8852 240.62 109.565 238.295V238.295C128.051 236.311 136.624 254.732 138.6 264.19" stroke="#4E1AB5" stroke-opacity="0.25"/>
</svg>
